<svg xmlns="http://www.w3.org/2000/svg" width="252" height="181.308" viewBox="0 0 252 181.308">
  <g id="Group_57" data-name="Group 57" transform="translate(-1234 -279)">
    <g id="Group_55" data-name="Group 55">
      <g id="Rectangle_20" data-name="Rectangle 20" transform="translate(1234 279)" fill="#fff" stroke="#7d60fa" stroke-width="5">
        <rect width="252" height="96" stroke="none"/>
        <rect x="2.5" y="2.5" width="247" height="91" fill="none"/>
      </g>
      <line id="Line_30" data-name="Line 30" x2="109" transform="translate(1301.721 304.255)" fill="none" stroke="#7d60fa" stroke-width="5"/>
      <line id="Line_31" data-name="Line 31" x2="224.782" transform="translate(1246.5 338.814)" fill="none" stroke="#7d60fa" stroke-width="5"/>
      <line id="Line_32" data-name="Line 32" x2="224.782" transform="translate(1246.5 350)" fill="none" stroke="#7d60fa" stroke-width="5"/>
    </g>
    <path id="Path_23" data-name="Path 23" d="M3632.3,370.481c-4.947,5.852-8.643,10.208-8.863,14.728-.882,17.609,33.616,23.247,3.428,45.073" transform="translate(-2286 21)" fill="none" stroke="#7d60fa" stroke-width="5"/>
    <path id="Path_24" data-name="Path 24" d="M3632.3,370.481c-4.947,5.852-8.643,10.208-8.863,14.728-.882,17.609,33.616,23.247,3.428,45.073" transform="translate(-2316 28)" fill="none" stroke="#7d60fa" stroke-width="5"/>
    <path id="Path_25" data-name="Path 25" d="M3632.3,370.481c-4.947,5.852-8.643,10.208-8.863,14.728-.882,17.609,33.616,23.247,3.428,45.073" transform="translate(-2226 26)" fill="none" stroke="#7d60fa" stroke-width="5"/>
    <path id="Path_26" data-name="Path 26" d="M3632.3,370.481c-4.947,5.852-8.643,10.208-8.863,14.728-.882,17.609,33.616,23.247,3.428,45.073" transform="translate(-2256 21)" fill="none" stroke="#7d60fa" stroke-width="5"/>
  </g>
</svg>
