<svg xmlns="http://www.w3.org/2000/svg" width="131.722" height="187.835" viewBox="0 0 131.722 187.835">
  <g id="Group_44" data-name="Group 44" transform="translate(-487.5 -242.528)">
    <path id="Path_17" data-name="Path 17" d="M0,0H44.186V112.55H0Z" transform="translate(490 280.436)" fill="#fff" stroke="#7d60fa" stroke-linejoin="bevel" stroke-width="5"/>
    <g id="Path_19" data-name="Path 19" transform="translate(570.036 290.57)" fill="#fff" stroke-linejoin="round">
      <path d="M 46.68626403808594 120.1416244506836 L 44.18626403808594 120.1416244506836 L -1.314290329901269e-06 120.1416244506836 L -2.500001430511475 120.1416244506836 L -2.500001430511475 117.6416244506836 L -2.500001430511475 8.410644113610033e-06 L -2.500001430511475 -2.499991655349731 L -1.314290329901269e-06 -2.499991655349731 L 44.18626403808594 -2.499991655349731 L 46.68626403808594 -2.499991655349731 L 46.68626403808594 8.410644113610033e-06 L 46.68626403808594 75.83165740966797 L 46.68626403808594 117.6416244506836 L 46.68626403808594 120.1416244506836 Z" stroke="none"/>
      <path d="M -7.62939453125e-06 -1.52587890625e-05 L -7.62939453125e-06 117.6416091918945 L 44.18627166748047 117.6416091918945 C 44.18627166748047 117.6416091918945 44.18627166748047 105.2420501708984 44.18627166748047 75.83164978027344 C 44.18627166748047 46.42124938964844 44.18627166748047 -1.52587890625e-05 44.18627166748047 -1.52587890625e-05 L -7.62939453125e-06 -1.52587890625e-05 M -7.62939453125e-06 -5.000015258789063 L 44.18627166748047 -5.000015258789063 C 46.94769287109375 -5.000015258789063 49.18627166748047 -2.761428833007813 49.18627166748047 -1.52587890625e-05 L 49.18627166748047 75.83164978027344 L 49.18627166748047 117.6416091918945 C 49.18627166748047 120.4030303955078 46.94769287109375 122.6416091918945 44.18627166748047 122.6416091918945 L -7.62939453125e-06 122.6416091918945 C -2.761428833007813 122.6416091918945 -5.000007629394531 120.4030303955078 -5.000007629394531 117.6416091918945 L -5.000007629394531 -1.52587890625e-05 C -5.000007629394531 -2.761428833007813 -2.761428833007813 -5.000015258789063 -7.62939453125e-06 -5.000015258789063 Z" stroke="none" fill="#7d60fa"/>
    </g>
    <g id="Path_18" data-name="Path 18" transform="translate(530.018 247.528)" fill="#fff" stroke-linejoin="round">
      <path d="M 46.68625640869141 180.3348846435547 L 44.18625640869141 180.3348846435547 L 7.019043096079258e-06 180.3348846435547 L -2.499993085861206 180.3348846435547 L -2.499993085861206 177.8348846435547 L -2.499993085861206 9.692383173387498e-06 L -2.499993085861206 -2.499990224838257 L 7.019043096079258e-06 -2.499990224838257 L 44.18625640869141 -2.499990224838257 L 46.68625640869141 -2.499990224838257 L 46.68625640869141 9.692383173387498e-06 L 46.68625640869141 114.6321563720703 L 46.68625640869141 177.8348846435547 L 46.68625640869141 180.3348846435547 Z" stroke="none"/>
      <path d="M 0 -1.52587890625e-05 L 0 177.8348541259766 L 44.18626403808594 177.8348541259766 C 44.18626403808594 177.8348541259766 44.18626403808594 159.0908813476563 44.18626403808594 114.6321411132813 C 44.18626403808594 70.17343139648438 44.18626403808594 -1.52587890625e-05 44.18626403808594 -1.52587890625e-05 L 0 -1.52587890625e-05 M 0 -5.000015258789063 L 44.18626403808594 -5.000015258789063 C 46.94768524169922 -5.000015258789063 49.18626403808594 -2.761428833007813 49.18626403808594 -1.52587890625e-05 L 49.18626403808594 114.6321411132813 L 49.18626403808594 177.8348541259766 C 49.18626403808594 180.5962829589844 46.94768524169922 182.8348541259766 44.18626403808594 182.8348541259766 L 0 182.8348541259766 C -2.761421203613281 182.8348541259766 -5 180.5962829589844 -5 177.8348541259766 L -5 -1.52587890625e-05 C -5 -2.761428833007813 -2.761421203613281 -5.000015258789063 0 -5.000015258789063 Z" stroke="none" fill="#7d60fa"/>
    </g>
    <line id="Line_3" data-name="Line 3" y2="63.361" transform="translate(497.92 302.529)" fill="none" stroke="#7d60fa" stroke-width="3"/>
    <line id="Line_5" data-name="Line 5" y2="129.224" transform="translate(535.437 272.516)" fill="none" stroke="#7d60fa" stroke-width="3"/>
    <line id="Line_6" data-name="Line 6" y2="66.696" transform="translate(542.94 325.873)" fill="none" stroke="#7d60fa" stroke-width="3"/>
    <line id="Line_9" data-name="Line 9" y2="24.177" transform="translate(542.94 280.019)" fill="none" stroke="#7d60fa" stroke-width="3"/>
    <line id="Line_11" data-name="Line 11" y2="11.672" transform="translate(542.94 309.199)" fill="none" stroke="#7d60fa" stroke-width="3"/>
    <line id="Line_7" data-name="Line 7" y2="34.182" transform="translate(582.958 330.041)" fill="none" stroke="#7d60fa" stroke-width="3"/>
    <line id="Line_12" data-name="Line 12" y2="20.843" transform="translate(582.958 368.392)" fill="none" stroke="#7d60fa" stroke-width="3"/>
    <line id="Line_8" data-name="Line 8" y2="55.024" transform="translate(590.461 309.199)" fill="none" stroke="#7d60fa" stroke-width="3"/>
    <line id="Line_4" data-name="Line 4" y2="43.353" transform="translate(505.423 310.866)" fill="none" stroke="#7d60fa" stroke-width="3"/>
  </g>
</svg>
